<svg width="18" height="21" viewBox="0 0 18 21" fill="none" xmlns="http://www.w3.org/2000/svg">
<path d="M14.1594 19.724C13.0702 20.7706 11.875 20.6006 10.7375 20.0989C9.52803 19.5869 8.4202 19.5493 7.13753 20.0809C5.54011 20.761 4.69512 20.5567 3.73953 19.6719C-1.6525 14.0649 -0.810016 5.56904 5.35151 5.27984C6.84509 5.36731 7.88735 6.11853 8.76702 6.18493C10.0763 5.92547 11.3321 5.16974 12.7316 5.27674C14.4129 5.42114 15.6676 6.09143 16.5016 7.28961C13.0312 9.35228 13.8284 13.9163 17 15.2122C16.3557 16.879 15.5314 18.5249 14.1573 19.738L14.1594 19.724ZM8.65177 5.23634C8.50217 2.75556 10.5223 0.725638 12.8353 0.5372C13.139 3.39875 10.2103 5.52413 8.65177 5.23634Z" fill="#19A2A4"/>
</svg>
