<svg width="40" height="40" viewBox="0 0 65 66" fill="none" xmlns="http://www.w3.org/2000/svg">
<circle cx="32.5325" cy="32.8429" r="32" transform="rotate(0.286459 32.5325 32.8429)" fill="#FE7448" fill-opacity="0.2"/>
<g clip-path="url(#clip0)">
<path d="M45.1052 22.2389L43.8129 22.2324C43.6195 22.2314 43.4355 22.3145 43.3078 22.4597C43.1808 22.6049 43.1225 22.7986 43.1489 22.9901C43.2142 23.4644 43.2442 23.8584 43.2423 24.2296C43.2185 29.0082 39.311 32.8767 34.5324 32.8528C29.7539 32.8289 25.8853 28.9215 25.9092 24.1429C25.911 23.7718 25.9449 23.3781 26.015 22.9045C26.0433 22.7132 25.987 22.5189 25.8614 22.3725C25.7352 22.226 25.552 22.1411 25.3586 22.1401L23.8113 22.1324L23.2784 20.3986C23.107 19.8411 22.5933 19.4596 22.0101 19.4567L18.5993 19.4396C18.2311 19.4378 17.9311 19.7347 17.9293 20.103L17.9226 21.4363C17.9208 21.8044 18.2178 22.1044 18.586 22.1063L21.0169 22.1184L25.164 35.6085L23.1754 37.5773C22.4059 38.3385 22.1737 39.478 22.5827 40.48C22.9918 41.4821 23.956 42.1334 25.038 42.1388L43.819 42.2327C44.1872 42.2346 44.4872 41.9376 44.489 41.5694L44.4957 40.2361C44.4975 39.8679 44.2005 39.5679 43.8324 39.5661L25.0513 39.4722L27.7313 36.8189L39.9095 36.8797C40.9375 36.8849 41.8877 36.2887 42.3306 35.3606L47.0323 25.4979C47.1672 25.2141 47.239 24.8987 47.2406 24.5855L47.2416 24.3967C47.2475 23.2125 46.2894 22.2448 45.1052 22.2389Z" fill="#FE7448"/>
<path d="M25.7855 48.8093C27.2582 48.8167 28.4581 47.6287 28.4655 46.156C28.4728 44.6832 27.2849 43.4833 25.8122 43.476C24.3394 43.4686 23.1395 44.6566 23.1322 46.1293C23.1248 47.6021 24.3127 48.802 25.7855 48.8093Z" fill="#FE7448"/>
<path d="M41.7855 48.8894C43.2583 48.8968 44.4581 47.7088 44.4655 46.2361C44.4728 44.7633 43.2849 43.5634 41.8122 43.5561C40.3394 43.5487 39.1395 44.7366 39.1322 46.2094C39.1248 47.6822 40.3127 48.882 41.7855 48.8894Z" fill="#FE7448"/>
<path d="M34.5387 31.5196C38.5823 31.5398 41.8884 28.2666 41.9086 24.223C41.9288 20.1794 38.6556 16.8733 34.612 16.8531C30.5685 16.8329 27.2624 20.1061 27.2421 24.1496C27.2219 28.1932 30.4951 31.4994 34.5387 31.5196ZM32.1117 22.6453C31.8525 22.3836 31.8546 21.9617 32.1164 21.7027C32.3781 21.4435 32.8 21.4456 33.059 21.7074L34.5801 23.2436L36.1163 21.7227C36.3781 21.4635 36.7999 21.4656 37.059 21.7274C37.3181 21.9891 37.316 22.411 37.0543 22.67L35.518 24.191L37.039 25.7273C37.2981 25.989 37.296 26.4109 37.0343 26.6699C36.9034 26.7995 36.7326 26.8638 36.562 26.8629C36.3914 26.8621 36.2212 26.7961 36.0916 26.6653L34.5706 25.129L33.0344 26.65C32.9035 26.7795 32.7326 26.8438 32.5621 26.8429C32.3915 26.8421 32.2213 26.7761 32.0917 26.6453C31.8325 26.3835 31.8346 25.9617 32.0964 25.7026L33.6326 24.1816L32.1117 22.6453Z" fill="#FE7448"/>
</g>
<defs>
<clipPath id="clip0">
<rect width="32" height="32" fill="white" transform="translate(16.6128 16.7632) rotate(0.286459)"/>
</clipPath>
</defs>
</svg>
