<svg width="40" height="40" viewBox="0 0 65 65" fill="none" xmlns="http://www.w3.org/2000/svg">
<circle opacity="0.2" cx="32.1594" cy="32.1596" r="32" transform="rotate(0.286459 32.1594 32.1596)" fill="#63F4F7"/>
<g clip-path="url(#clip0)">
<path d="M44.7321 21.5555L43.4398 21.549C43.2465 21.5481 43.0625 21.6312 42.9348 21.7763C42.8077 21.9215 42.7494 22.1153 42.7759 22.3068C42.8412 22.7811 42.8711 23.1751 42.8693 23.5462C42.8454 28.3248 38.9379 32.1934 34.1594 32.1695C29.3808 32.1456 25.5122 28.2382 25.5361 23.4596C25.538 23.0884 25.5718 22.6947 25.642 22.2211C25.6703 22.0298 25.6139 21.8355 25.4884 21.6891C25.3622 21.5427 25.179 21.4577 24.9856 21.4568L23.4382 21.449L22.9053 19.7152C22.734 19.1577 22.2203 18.7762 21.637 18.7733L18.2262 18.7563C17.8581 18.7544 17.5581 19.0514 17.5562 19.4196L17.5496 20.7529C17.5477 21.1211 17.8447 21.4211 18.2129 21.4229L20.6439 21.4351L24.7909 34.9252L22.8023 36.894C22.0329 37.6552 21.8006 38.7946 22.2097 39.7967C22.6187 40.7987 23.5829 41.4501 24.665 41.4555L43.446 41.5494C43.8142 41.5512 44.1141 41.2542 44.116 40.886L44.1227 39.5527C44.1245 39.1845 43.8275 38.8846 43.4593 38.8827L24.6783 38.7888L27.3582 36.1355L39.5364 36.1964C40.5644 36.2015 41.5147 35.6053 41.9575 34.6772L46.6592 24.8146C46.7941 24.5307 46.866 24.2153 46.8676 23.9021L46.8685 23.7133C46.8744 22.5292 45.9163 21.5614 44.7321 21.5555Z" fill="#63F4F7"/>
<path d="M25.4124 48.126C26.8852 48.1333 28.0851 46.9454 28.0924 45.4726C28.0998 43.9999 26.9119 42.8 25.4391 42.7926C23.9664 42.7853 22.7665 43.9732 22.7591 45.446C22.7518 46.9187 23.9397 48.1186 25.4124 48.126Z" fill="#63F4F7"/>
<path d="M41.4125 48.206C42.8852 48.2134 44.0851 47.0255 44.0924 45.5527C44.0998 44.0799 42.9119 42.8801 41.4391 42.8727C39.9664 42.8653 38.7665 44.0533 38.7591 45.526C38.7518 46.9988 39.9397 48.1987 41.4125 48.206Z" fill="#63F4F7"/>
<path d="M34.1656 30.8362C38.2092 30.8564 41.5153 27.5832 41.5355 23.5397C41.5557 19.4961 38.2825 16.1899 34.239 16.1697C30.1954 16.1495 26.8893 19.4227 26.8691 23.4663C26.8489 27.5099 30.1221 30.816 34.1656 30.8362ZM30.3967 23.6792C30.6584 23.4201 31.0803 23.4222 31.3394 23.6839L32.8603 25.2202L37.0766 21.0459C37.3383 20.7868 37.7602 20.7889 38.0192 21.0506C38.2784 21.3124 38.2763 21.7342 38.0145 21.9933L33.3246 26.6366C33.1937 26.7661 33.0228 26.8304 32.8522 26.8295C32.6817 26.8287 32.5114 26.7627 32.3818 26.6319L30.3919 24.6219C30.1329 24.3602 30.135 23.9384 30.3967 23.6792Z" fill="#63F4F7"/>
</g>
<defs>
<clipPath id="clip0">
<rect width="32" height="32" fill="white" transform="translate(16.2397 16.0798) rotate(0.286459)"/>
</clipPath>
</defs>
</svg>
