<svg width="101" height="60" viewBox="0 0 101 60" fill="none" xmlns="http://www.w3.org/2000/svg">
<g clip-path="url(#clip0)">
<rect x="14.5178" y="4.41824" width="72.1563" height="47.8148" transform="rotate(0.286459 14.5178 4.41824)" stroke="white" stroke-opacity="0.6" stroke-width="0.5"/>
<path d="M59.5198 30.8312L59.4998 34.8312C59.4971 35.3616 59.2839 35.8692 58.9069 36.2424C58.53 36.6156 58.0202 36.8238 57.4898 36.8211L43.49 36.7511C42.9596 36.7485 42.4519 36.5352 42.0787 36.1583C41.7055 35.7813 41.4974 35.2716 41.5 34.7412L41.52 30.7412" stroke="white" stroke-linecap="round" stroke-linejoin="round"/>
<path d="M45.5449 25.7612L50.5199 30.7862L55.5448 25.8112" stroke="white" stroke-linecap="round" stroke-linejoin="round"/>
<path d="M50.5201 30.7862L50.5801 18.7864" stroke="white" stroke-linecap="round" stroke-linejoin="round"/>
<rect x="11.1877" y="0.839137" width="79.0759" height="55.0509" rx="2.75" transform="rotate(0.286459 11.1877 0.839137)" stroke="white" stroke-opacity="0.6" stroke-width="0.5"/>
<rect x="0.641325" y="56.4492" width="99.5" height="1.83781" rx="0.918907" transform="rotate(0.286459 0.641325 56.4492)" stroke="white" stroke-opacity="0.6" stroke-width="0.5"/>
<path d="M34.8991 56.6205L65.5426 56.7737C65.8349 56.7752 65.9349 57.164 65.6795 57.3063C65.1951 57.5762 64.6493 57.7165 64.0948 57.7137L36.3952 57.5752C35.814 57.5723 35.246 57.4012 34.7599 57.0826C34.5503 56.9452 34.6484 56.6193 34.8991 56.6205Z" stroke="white" stroke-opacity="0.6" stroke-width="0.5"/>
</g>
<defs>
<clipPath id="clip0">
<rect width="100" height="58" fill="white" transform="translate(0.670898 0.536621) rotate(0.286459)"/>
</clipPath>
</defs>
</svg>
