<svg width="19" height="14" viewBox="0 0 19 14" fill="none" xmlns="http://www.w3.org/2000/svg">
<path d="M15.9345 1.87191C14.349 0.582371 11.8313 0.35258 11.7233 0.344441C11.6413 0.337275 11.5591 0.355798 11.4881 0.397442C11.4171 0.439086 11.3608 0.501789 11.327 0.576862C11.2784 0.684709 11.2371 0.795685 11.2033 0.909048C12.2556 1.09231 13.5474 1.45677 14.7141 2.18902C14.7587 2.21695 14.7972 2.25337 14.8277 2.29621C14.8581 2.33905 14.8798 2.38747 14.8915 2.43869C14.9032 2.48991 14.9048 2.54295 14.896 2.59476C14.8872 2.64657 14.8683 2.69614 14.8404 2.74065C14.8125 2.78516 14.776 2.82374 14.7332 2.85417C14.6904 2.8846 14.6419 2.9063 14.5907 2.91802C14.5395 2.92975 14.4865 2.93127 14.4346 2.92249C14.3828 2.91372 14.3333 2.89483 14.2888 2.8669C12.283 1.60765 9.77056 1.53309 9.28617 1.53067C8.80218 1.52825 6.2875 1.57808 4.27048 2.81641C4.22569 2.8439 4.17593 2.86229 4.12403 2.87054C4.07214 2.8788 4.01912 2.87675 3.96802 2.86451C3.86481 2.83981 3.77564 2.77511 3.72013 2.68466C3.66462 2.5942 3.64732 2.48541 3.67203 2.3822C3.69674 2.27899 3.76143 2.18982 3.85188 2.13431C5.02589 1.41577 6.32127 1.06264 7.37534 0.891509C7.31553 0.692807 7.26096 0.567333 7.25701 0.556513C7.22411 0.480576 7.16817 0.416899 7.09711 0.374481C7.02605 0.332064 6.94345 0.313051 6.86099 0.32013C6.75295 0.32759 4.2331 0.531794 2.61263 1.82251C1.76674 2.59749 0.0579836 7.1454 0.0382891 11.0846C0.0379371 11.155 0.0564009 11.2222 0.0904965 11.2832C1.24266 13.333 4.41355 13.8829 5.13663 13.9101L5.14903 13.9101C5.21214 13.9106 5.27447 13.8962 5.33092 13.8679C5.38738 13.8397 5.43635 13.7985 5.47384 13.7478L6.20966 12.745C4.23903 12.226 3.23537 11.3553 3.17803 11.3035C3.09882 11.2328 3.05091 11.1336 3.04484 11.0277C3.03876 10.9217 3.07503 10.8177 3.14566 10.7385C3.21628 10.6593 3.31548 10.6114 3.42144 10.6053C3.52739 10.5992 3.63141 10.6355 3.71063 10.7061C3.73372 10.7282 5.58222 12.3123 9.23217 12.3305C12.8881 12.3488 14.7524 10.7769 14.7713 10.7614C14.8514 10.6921 14.9558 10.6574 15.0616 10.665C15.1673 10.6726 15.2656 10.7218 15.3351 10.8018C15.3695 10.8413 15.3957 10.8871 15.4124 10.9367C15.429 10.9864 15.4358 11.0388 15.4322 11.091C15.4286 11.1432 15.4147 11.1942 15.3914 11.241C15.3681 11.2879 15.3358 11.3297 15.2963 11.364C15.2384 11.4154 14.2261 12.2759 12.2504 12.7752L12.9765 13.7853C13.0135 13.8364 13.062 13.878 13.1181 13.9068C13.1742 13.9356 13.2363 13.9507 13.2993 13.9509L13.3113 13.9509C14.0354 13.931 17.2113 13.4124 18.3843 11.3747C18.4186 11.314 18.4377 11.2469 18.4381 11.1765C18.4578 7.23739 16.7945 2.67302 15.9345 1.87191ZM6.6462 9.51757C5.87261 9.5137 5.2498 8.79458 5.25422 7.91059C5.25864 7.0266 5.88861 6.31374 6.6622 6.31761C7.43579 6.32148 8.05861 7.0406 8.05419 7.92459C8.04977 8.80858 7.4198 9.52144 6.6462 9.51757ZM11.8461 9.54357C11.0725 9.5397 10.4497 8.82058 10.4542 7.93659C10.4586 7.0526 11.0885 6.33974 11.8621 6.34361C12.6357 6.34748 13.2585 7.0666 13.2541 7.95059C13.2497 8.83458 12.6197 9.54744 11.8461 9.54357Z" fill="#01A9F4"/>
</svg>
