<svg width="29" height="29" viewBox="0 0 29 29" fill="none" xmlns="http://www.w3.org/2000/svg">
<circle opacity="0.2" cx="14.2858" cy="14.448" r="14" transform="rotate(0.286459 14.2858 14.448)" fill="#1EC1C3"/>
<g clip-path="url(#clip0)">
<path d="M22.1526 21.4474L7.36508 6.51127C7.23552 6.38046 7.02452 6.3794 6.89365 6.50891L6.42001 6.97786C6.28915 7.10737 6.28809 7.31843 6.41766 7.44926L9.16033 10.2195C7.839 11.2544 6.83697 12.6693 6.30162 14.3066C6.28014 14.3725 6.27978 14.4441 6.3006 14.5103C7.41674 18.044 10.6135 20.4301 14.2551 20.4483C15.6795 20.4555 17.051 20.1014 18.2774 19.4282L21.2052 22.3854C21.3347 22.5162 21.5457 22.5173 21.6766 22.3878L22.1502 21.9188C22.2811 21.7893 22.2821 21.5782 22.1526 21.4474ZM14.2618 19.115C11.6886 19.1021 9.60563 16.9983 9.6185 14.4251C9.62356 13.4121 9.96154 12.4367 10.5655 11.6388L12.0075 13.0953C11.7656 13.4968 11.6209 13.9511 11.6185 14.435C11.6111 15.9054 12.8014 17.1076 14.2718 17.115C14.7558 17.1174 15.2114 16.9772 15.6153 16.7394L17.0573 18.1958C16.2534 18.7919 15.2747 19.1201 14.2618 19.115Z" fill="#1EC1C3"/>
<path d="M14.0162 11.9867C13.9632 12.1111 13.9907 12.2558 14.086 12.352L16.3791 14.6681C16.4426 14.7323 16.5277 14.7666 16.6143 14.767C16.658 14.7672 16.7019 14.759 16.7437 14.7416C16.8689 14.6895 16.9503 14.5672 16.9493 14.4314C16.94 12.9707 15.7889 11.8081 14.3284 11.7842C14.1955 11.7978 14.0695 11.862 14.0162 11.9867Z" fill="#1EC1C3"/>
<path d="M11.9198 10.1637C12.0193 10.2644 12.1718 10.2906 12.2991 10.2307C12.9373 9.92916 13.6136 9.77791 14.3089 9.78139C16.8821 9.79425 18.965 11.8981 18.9522 14.4713C18.9487 15.1667 18.7907 15.8413 18.4828 16.4765C18.4213 16.6038 18.4466 16.756 18.546 16.8564L19.6955 18.0175C19.7577 18.0803 19.8421 18.1159 19.9307 18.1163C19.931 18.1163 19.9314 18.1163 19.9314 18.1163C20.0202 18.1164 20.1054 18.0814 20.1682 18.0189C21.1203 17.0669 21.8469 15.8811 22.269 14.5898C22.2905 14.5238 22.2909 14.4523 22.2701 14.3861C21.1539 10.8524 17.9571 8.46626 14.3155 8.44805C13.3162 8.44305 12.3332 8.61586 11.3936 8.96211C11.2873 9.0013 11.2081 9.09171 11.1834 9.20259C11.1588 9.31316 11.1924 9.42889 11.272 9.50935L11.9198 10.1637Z" fill="#1EC1C3"/>
</g>
<defs>
<clipPath id="clip0">
<rect width="16" height="16" fill="white" transform="translate(6.32568 6.4082) rotate(0.286459)"/>
</clipPath>
</defs>
</svg>
