<svg width="51" height="51" viewBox="0 0 51 51" fill="none" xmlns="http://www.w3.org/2000/svg">
<rect y="3" width="48" height="48" rx="8" fill="#01A9F4"/>
<path d="M31.5961 32.411C31.0758 31.6346 30.3639 30.5715 30.3639 27.5455V26.1818C30.3639 23.3049 28.4434 20.8709 25.8184 20.0862V19.8182C25.8184 18.8154 25.0025 18 24.0002 18C22.9979 18 22.182 18.8154 22.182 19.8182V20.0862C19.5571 20.8709 17.6366 23.3049 17.6366 26.1818V27.5455C17.6366 30.5715 16.9246 31.6346 16.4043 32.411C16.1033 32.8606 15.8184 33.2854 15.8184 33.9091C15.8184 35.391 18.9076 35.911 21.4123 36.0901C21.7635 37.2144 22.7943 38 24.0002 38C25.206 38 26.2369 37.2144 26.5881 36.0901C29.0927 35.911 32.182 35.391 32.182 33.9091C32.1821 33.2854 31.897 32.8606 31.5961 32.411ZM24.9093 19.8908C24.6116 19.8479 24.3096 19.8182 24.0002 19.8182C23.6908 19.8182 23.3889 19.8479 23.0911 19.8908V19.8182C23.0911 19.3171 23.4987 18.9091 24.0002 18.9091C24.5018 18.9091 24.9093 19.317 24.9093 19.8182V19.8908Z" fill="white"/>
<circle cx="45" cy="6" r="6" fill="#FE7448"/>
</svg>
