<svg width="18" height="21" viewBox="0 0 18 21" fill="none" xmlns="http://www.w3.org/2000/svg">
<path d="M16.6777 14.7131C16.1613 13.9341 15.4546 12.8674 15.4698 9.84145L15.4766 8.47783C15.491 5.60093 13.5827 3.15736 10.9616 2.3596L10.963 2.09156C10.968 1.08879 10.1562 0.269306 9.15393 0.264295C8.15163 0.259284 7.33168 1.07061 7.32667 2.07338L7.32533 2.34142C4.69648 3.11293 2.76382 5.5373 2.74944 8.4142L2.74262 9.77782C2.72749 12.8038 2.01019 13.8633 1.48605 14.6371C1.18282 15.0852 0.895747 15.5086 0.892629 16.1323C0.88522 17.6141 3.97186 18.1496 6.47559 18.3412C6.82115 19.4672 7.84807 20.258 9.0539 20.264C10.2597 20.2701 11.2945 19.4896 11.6513 18.3671C14.1568 18.2005 17.2487 17.696 17.2561 16.2141C17.2592 15.5904 16.9764 15.1642 16.6777 14.7131ZM10.0535 2.15963C9.75602 2.11527 9.45426 2.08402 9.14484 2.08247C8.83543 2.08092 8.53337 2.10916 8.23541 2.15054L8.23578 2.07792C8.23828 1.57679 8.64783 1.1709 9.14939 1.1734C9.65094 1.17591 10.0564 1.58584 10.0539 2.08701L10.0535 2.15963Z" fill="#6F7291"/>
</svg>
