<svg width="21" height="21" viewBox="0 0 21 21" fill="none" xmlns="http://www.w3.org/2000/svg">
<path fill-rule="evenodd" clip-rule="evenodd" d="M20.5708 10.5789C20.5432 16.1016 16.0438 20.5564 10.521 20.5287C4.9982 20.5011 0.543485 16.0017 0.571098 10.4789C0.59871 4.9561 5.09819 0.501388 10.621 0.529C16.1437 0.556612 20.5985 5.05609 20.5708 10.5789ZM16.4257 7.44491L13.7124 4.70426C13.5005 4.49019 13.1551 4.48847 12.9411 4.70041C12.727 4.91235 12.7253 5.25764 12.9372 5.47171L14.7242 7.27669L5.13282 7.22873C4.83161 7.22723 4.58619 7.4702 4.58468 7.77142C4.58318 8.07263 4.82615 8.31805 5.12737 8.31955L14.7187 8.36751L12.9138 10.1545C12.6997 10.3664 12.698 10.7118 12.91 10.9258C13.0159 11.0328 13.1552 11.0868 13.2948 11.0875C13.4344 11.0882 13.5742 11.0356 13.6812 10.9296L16.4219 8.21624C16.636 8.0043 16.6377 7.65898 16.4257 7.44491ZM6.42321 12.6899L16.0146 12.7378C16.3158 12.7393 16.5588 12.9847 16.5573 13.2859C16.5558 13.5872 16.3103 13.8301 16.0091 13.8286L6.41774 13.7807L8.2047 15.5856C8.41664 15.7996 8.41492 16.145 8.20085 16.3569C8.09387 16.4629 7.954 16.5154 7.81442 16.5147C7.67484 16.514 7.53555 16.4601 7.42954 16.353L4.71616 13.6124C4.50423 13.3983 4.50595 13.053 4.72002 12.8411L7.46069 10.1277C7.67476 9.91576 8.0201 9.91748 8.232 10.1316C8.44393 10.3456 8.44221 10.6909 8.22814 10.9029L6.42321 12.6899Z" fill="#01A9F4"/>
</svg>
